<svg xmlns="http://www.w3.org/2000/svg" viewBox="0 0 181.67 169.67"><defs><style>.cls-1{fill:none;stroke-width:10px;}.cls-1,.cls-3{stroke:#fff;stroke-miterlimit:10;}.cls-2,.cls-3{fill:#fff;}.cls-3{stroke-width:8px;}</style></defs><title>logo-03</title><g id="Layer_1" data-name="Layer 1"><path class="cls-1" d="M156.49,83.25c0,16.37-11.61,23.18-18.25,25.74-8.87-20.9-32.33-35.84-59.88-35.84-35.16,0-63.67,24.33-63.67,54.35,0,15,9.81,27,18.65,38.44.36.46,27.44.87,45,.87,17.84,0,45.14-.31,45.14-.31A58.31,58.31,0,0,0,136.37,150c15.38-3,23.22-20.66,25.74-27.14,9.8-25.08,2-32.06,14.7-37.92V60.19S156.49,66.75,156.49,83.25Z"/><path class="cls-1" d="M27.4,95S13.5,10.93,78.5,12s50.11,83,50.11,83"/><circle class="cls-2" cx="92.62" cy="42.49" r="7.38"/><circle class="cls-2" cx="65.04" cy="42.49" r="7.38"/><polygon class="cls-2" points="37.92 28.25 37.92 0 57.57 16.77 37.92 28.25"/><polygon class="cls-2" points="116.64 28.25 116.64 0 97 16.77 116.64 28.25"/><line class="cls-3" x1="125.42" y1="48.86" x2="149.27" y2="42.41"/><line class="cls-3" x1="128.67" y1="59" x2="150" y2="66.58"/><line class="cls-3" x1="28" y1="46.86" x2="4.15" y2="40.41"/><line class="cls-3" x1="24.76" y1="57" x2="3.42" y2="64.58"/></g></svg>